<svg width="16" height="16" viewBox="0 0 16 16" fill="none" xmlns="http://www.w3.org/2000/svg">
<path fill-rule="evenodd" clip-rule="evenodd" d="M8 16.0005C3.58172 16.0005 -2.17128e-06 12.4188 -1.39876e-06 8.00049C-6.26248e-07 3.58221 3.58172 0.000488907 8 0.00048968C12.4183 0.000490453 16 3.58221 16 8.00049C16 12.4188 12.4183 16.0005 8 16.0005ZM8 14.0005C11.3137 14.0005 14 11.3142 14 8.00049C14 4.68678 11.3137 2.00049 8 2.00049C4.68629 2.00049 2 4.68678 2 8.00049C2 11.3142 4.68629 14.0005 8 14.0005ZM11.7071 7.7076L10.2929 6.29338L8 8.58628L5.70711 6.29338L4.29289 7.7076L8 11.4147L11.7071 7.7076Z" fill="#1F1F1F"/>
</svg>
