<svg width="16" height="16" viewBox="0 0 16 16" fill="none" xmlns="http://www.w3.org/2000/svg">
<path fill-rule="evenodd" clip-rule="evenodd" d="M8 -6.99382e-07C12.4183 -3.13124e-07 16 3.58172 16 8C16 12.4183 12.4183 16 8 16C3.58172 16 3.13124e-07 12.4183 6.99382e-07 8C1.08564e-06 3.58172 3.58172 -1.08564e-06 8 -6.99382e-07ZM8 2C4.68629 2 2 4.68629 2 8C2 11.3137 4.68629 14 8 14C11.3137 14 14 11.3137 14 8C14 4.68629 11.3137 2 8 2ZM4.29289 8.29289L5.70711 9.70711L8 7.41421L10.2929 9.70711L11.7071 8.29289L8 4.58579L4.29289 8.29289Z" fill="#489825"/>
</svg>
