<svg width="60" height="60" viewBox="0 0 60 60" fill="none" xmlns="http://www.w3.org/2000/svg">
<g id="24 / finance / creditcard-no">
<path id="icon" fill-rule="evenodd" clip-rule="evenodd" d="M7.04545 47.4999H46.4645L53.2322 54.2677L56.7678 50.7322L6.76777 0.732178L3.23223 4.26771L6.50008 7.53556C4.24683 7.83193 2.5 9.94154 2.5 12.4999V42.4999C2.5 45.2614 4.53507 47.4999 7.04545 47.4999ZM7.5 12.5H11.4645L18.9645 20H7.5V12.5ZM23.9645 25H7.5V42.5H41.4645L23.9645 25ZM20.5354 7.50001L25.5354 12.5H52.4998V20H33.0354L38.0354 25H52.4998V39.4645L57.2316 44.1962C57.4052 43.6666 57.4998 43.0955 57.4998 42.5V12.5C57.4998 9.73859 55.4648 7.50001 52.9544 7.50001H20.5354Z" fill="#489825"/>
</g>
</svg>
