<svg width="60" height="60" viewBox="0 0 60 60" fill="none" xmlns="http://www.w3.org/2000/svg">
<g id="24 / reactions / laughing">
<path id="icon" fill-rule="evenodd" clip-rule="evenodd" d="M2.5 30C2.5 45.1878 14.8122 57.5 30 57.5C45.1878 57.5 57.5 45.1878 57.5 30C57.5 14.8122 45.1878 2.5 30 2.5C14.8122 2.5 2.5 14.8122 2.5 30ZM52.5 30C52.5 42.4264 42.4264 52.5 30 52.5C17.5736 52.5 7.5 42.4264 7.5 30C7.5 17.5736 17.5736 7.5 30 7.5C42.4264 7.5 52.5 17.5736 52.5 30ZM30.0802 47.5C21.6864 47.5 17.016 43.079 17.016 35V32.5H42.7894L42.8586 34.9288C43.0894 43.0361 38.5008 47.5 30.0802 47.5ZM37.7188 37.5C37.1315 40.9887 34.7723 42.5 30.0801 42.5C25.3906 42.5 22.9544 40.9756 22.2419 37.5H37.7188ZM35 20H42.5V25H35V20ZM25 20H17.5V25H25V20Z" fill="#489825"/>
</g>
</svg>
