<svg width="50" height="50" viewBox="0 0 50 50" fill="none" xmlns="http://www.w3.org/2000/svg">
<path fill-rule="evenodd" clip-rule="evenodd" d="M50 45V27.5H45V45H5V5H22.5V0H5C2.23858 0 0 2.23858 0 5V45C0 47.7614 2.23858 50 5 50H45C47.7614 50 50 47.7614 50 45ZM42.9453 1.80856C41.7993 0.653549 40.2302 0 38.5934 0C36.9584 0 35.391 0.652074 34.2385 1.81157L13.3162 22.7336C11.4467 24.3808 10.2211 26.8321 10.0081 29.4683L10 37.5058V40.0058H20.3365C23.1723 39.8113 25.6476 38.5737 27.3938 36.5594L48.1975 15.7646C49.3517 14.6104 50.0001 13.045 50.0001 11.4127C50.0001 9.78042 49.3517 8.215 48.1975 7.0608L42.9453 1.80856ZM20.16 35.0121C21.4955 34.9175 22.7387 34.2959 23.737 33.1541L38.8917 17.9993L32.006 11.1132L16.7403 26.374C15.7274 27.2698 15.1008 28.5231 15 29.6696V35.0074L20.16 35.0121ZM35.5422 7.5782L42.4273 14.4638L44.662 12.2291C44.8785 12.0125 45.0001 11.7189 45.0001 11.4127C45.0001 11.1065 44.8785 10.8129 44.662 10.5963L39.4028 5.33714C39.1887 5.12136 38.8973 5 38.5934 5C38.2894 5 37.998 5.12136 37.7839 5.33714L35.5422 7.5782Z" fill="#489825"/>
</svg>
