<svg width="60" height="60" viewBox="0 0 60 60" fill="none" xmlns="http://www.w3.org/2000/svg">
<g id="24 / basic / pencil-edit">
<path id="icon" fill-rule="evenodd" clip-rule="evenodd" d="M55 50V32.5H50V50H10V10H27.5V5H10C7.23858 5 5 7.23858 5 10V50C5 52.7614 7.23858 55 10 55H50C52.7614 55 55 52.7614 55 50ZM47.9453 6.80856C46.7993 5.65355 45.2302 5 43.5934 5C41.9584 5 40.391 5.65207 39.2385 6.81157L18.3162 27.7336C16.4467 29.3808 15.2211 31.8321 15.0081 34.4683L15 42.5058V45.0058H25.3365C28.1723 44.8113 30.6476 43.5737 32.3938 41.5594L53.1975 20.7646C54.3517 19.6104 55.0001 18.045 55.0001 16.4127C55.0001 14.7804 54.3517 13.215 53.1975 12.0608L47.9453 6.80856ZM25.16 40.0121C26.4955 39.9175 27.7387 39.2959 28.737 38.1541L43.8917 22.9993L37.006 16.1132L21.7403 31.374C20.7274 32.2698 20.1008 33.5231 20 34.6696V40.0074L25.16 40.0121ZM40.5422 12.5782L47.4273 19.4638L49.662 17.2291C49.8785 17.0125 50.0001 16.7189 50.0001 16.4127C50.0001 16.1065 49.8785 15.8129 49.662 15.5963L44.4028 10.3371C44.1887 10.1214 43.8973 10 43.5934 10C43.2894 10 42.998 10.1214 42.7839 10.3371L40.5422 12.5782Z" fill="#489825"/>
</g>
</svg>
