<svg width="8" height="12" viewBox="0 0 8 12" fill="none" xmlns="http://www.w3.org/2000/svg">
<path d="M3.822 9.522C3.66333 9.522 3.53267 9.47067 3.43 9.368C3.32733 9.26533 3.276 9.13 3.276 8.962C3.276 8.58867 3.36467 8.18733 3.542 7.758C3.72867 7.32867 3.98533 6.96 4.312 6.652C4.60133 6.38133 4.87667 6.12 5.138 5.868C5.39933 5.616 5.60933 5.336 5.768 5.028C5.936 4.72 6.02 4.33267 6.02 3.866C6.02 3.502 5.93133 3.17067 5.754 2.872C5.57667 2.564 5.32467 2.32133 4.998 2.144C4.68067 1.96667 4.30733 1.878 3.878 1.878C3.41133 1.878 3.01 1.976 2.674 2.172C2.338 2.35867 2.07667 2.62 1.89 2.956C1.71267 3.292 1.624 3.67933 1.624 4.118C1.624 4.27667 1.57267 4.40733 1.47 4.51C1.37667 4.60333 1.25067 4.65 1.092 4.65C0.933333 4.65 0.802667 4.60333 0.7 4.51C0.597333 4.40733 0.546 4.27667 0.546 4.118C0.546 3.474 0.686 2.90933 0.966 2.424C1.246 1.92933 1.63333 1.542 2.128 1.262C2.632 0.981999 3.21533 0.841999 3.878 0.841999C4.494 0.841999 5.04467 0.977333 5.53 1.248C6.01533 1.50933 6.398 1.87333 6.678 2.34C6.958 2.79733 7.098 3.32467 7.098 3.922C7.098 4.44467 7.00467 4.888 6.818 5.252C6.63133 5.616 6.384 5.952 6.076 6.26C5.77733 6.55867 5.446 6.876 5.082 7.212C4.79267 7.47333 4.60133 7.76733 4.508 8.094C4.41467 8.42067 4.368 8.71 4.368 8.962C4.368 9.13 4.31667 9.26533 4.214 9.368C4.11133 9.47067 3.98067 9.522 3.822 9.522ZM3.822 12C3.58867 12 3.39267 11.9207 3.234 11.762C3.08467 11.6033 3.01 11.412 3.01 11.188C3.01 10.9547 3.08933 10.7587 3.248 10.6C3.40667 10.4413 3.598 10.362 3.822 10.362C4.046 10.362 4.23733 10.4413 4.396 10.6C4.564 10.7587 4.648 10.9547 4.648 11.188C4.648 11.412 4.564 11.6033 4.396 11.762C4.23733 11.9207 4.046 12 3.822 12Z" fill="#1F1F1F"/>
</svg>
