<svg width="18" height="18" viewBox="0 0 18 18" fill="none" xmlns="http://www.w3.org/2000/svg">
<path fill-rule="evenodd" clip-rule="evenodd" d="M7.33317 14C3.65127 14 0.666504 11.0152 0.666504 7.33332C0.666504 3.65142 3.65127 0.666656 7.33317 0.666656C11.0151 0.666656 13.9998 3.65142 13.9998 7.33332C13.9998 8.87392 13.4773 10.2925 12.5997 11.4214L17.0891 15.9107L15.9106 17.0892L11.4212 12.5999C10.2923 13.4774 8.87376 14 7.33317 14ZM12.3332 7.33333C12.3332 10.0948 10.0947 12.3333 7.33323 12.3333C4.57181 12.3333 2.33323 10.0948 2.33323 7.33333C2.33323 4.5719 4.57181 2.33333 7.33323 2.33333C10.0947 2.33333 12.3332 4.5719 12.3332 7.33333Z" fill="#1F1F1F"/>
</svg>
