<svg width="60" height="60" viewBox="0 0 60 60" fill="none" xmlns="http://www.w3.org/2000/svg">
<g id="24 / security / shield-lock">
<path id="icon" fill-rule="evenodd" clip-rule="evenodd" d="M7.5 37.5C7.5 44.151 15 50.8177 30 57.5C45 50.8333 52.5 44.1667 52.5 37.5C52.5 36.5464 52.5043 34.5082 52.5096 31.9867C52.5251 24.5928 52.5493 13.0431 52.5 12.5C52.5 10.581 51.7635 10.135 49.7252 8.90073C49.108 8.52701 48.3715 8.08102 47.5 7.5C43.75 5 37.4881 2.5 30 2.5C21.408 2.5 12.9045 7.23034 12.5 7.5C11.6285 8.08102 10.892 8.52701 10.2748 8.90073C8.2365 10.135 7.5 10.581 7.5 12.5V37.5ZM47.5046 34.3867C47.5015 35.9595 47.5 36.9242 47.5 37.5C47.5 41.2856 41.9304 46.4343 30.0023 52.005C18.0728 46.4219 12.5 41.2711 12.5 37.5V13.4083L12.8195 13.2101L12.8197 13.21L12.8198 13.2099L12.82 13.2097L12.8202 13.2096C13.6285 12.7082 14.6818 12.0547 15.2735 11.6603C17.5716 10.1282 24.5952 7.5 30 7.5C35.6504 7.5 41.0358 9.19979 44.7265 11.6603C45.3184 12.0549 46.3721 12.7086 47.1805 13.2101L47.5239 13.4232C47.5293 14.9045 47.5318 19.6941 47.5226 25.2745C47.5204 26.5681 47.5179 27.9238 47.5147 29.5036L47.5046 34.3867ZM37.5 22.5C40.2614 22.5 42.5 24.7386 42.5 27.5V37.5C42.5 40.2614 40.2614 42.5 37.5 42.5H22.5C19.7386 42.5 17.5 40.2614 17.5 37.5V27.5C17.5 24.7386 19.7386 22.5 22.5 22.5V17.5C22.5 13.3579 25.8579 10 30 10C34.1421 10 37.5 13.3579 37.5 17.5V22.5ZM32.5 17.5V22.5H27.5V17.5C27.5 16.1193 28.6193 15 30 15C31.3807 15 32.5 16.1193 32.5 17.5ZM22.5 37.5V27.5H37.5V37.5H22.5ZM27.5 32.5C27.5 33.8807 28.6193 35 30 35C31.3807 35 32.5 33.8807 32.5 32.5C32.5 31.1193 31.3807 30 30 30C28.6193 30 27.5 31.1193 27.5 32.5Z" fill="#489825"/>
</g>
</svg>
