<svg width="60" height="60" viewBox="0 0 60 60" fill="none" xmlns="http://www.w3.org/2000/svg">
<g id="24 / time / time-history">
<path id="icon" fill-rule="evenodd" clip-rule="evenodd" d="M20 15H12.7852C17.6116 9.47844 22.898 7.5 30 7.5C42.4264 7.5 52.5 17.5736 52.5 30C52.5 42.4264 42.4264 52.5 30 52.5C17.5736 52.5 7.5 42.4264 7.5 30H2.5C2.5 45.1878 14.8122 57.5 30 57.5C45.1878 57.5 57.5 45.1878 57.5 30C57.5 14.8122 45.1878 2.5 30 2.5C21.9666 2.5 15.5927 4.7764 10 10.6411V4.97803H5V20H20V15ZM42.5 27.5H32.5V15H27.5V32.5H42.5V27.5Z" fill="#489825"/>
</g>
</svg>
