<svg width="60" height="60" viewBox="0 0 60 60" fill="none" xmlns="http://www.w3.org/2000/svg">
<g id="24 / finance / wallet">
<path id="icon" fill-rule="evenodd" clip-rule="evenodd" d="M38.6264 3.50666C41.2816 2.74803 44.049 4.28549 44.8076 6.94067C44.9352 7.38738 45 7.84969 45 8.31428V12.5H50C52.7614 12.5 55 14.7386 55 17.5V47.5C55 50.2614 52.7614 52.5 50 52.5H10C7.23858 52.5 5 50.2614 5 47.5H5.06676C5.02238 47.2311 5 46.9588 5 46.6856V16.8857C5 14.6533 6.47989 12.6914 8.62639 12.0781L38.6264 3.50666ZM25.35 47.5H50V27.5H45V38.1142C45 40.3466 43.5201 42.3085 41.3736 42.9218L25.35 47.5ZM45 17.5H50V22.5H45V17.5ZM10 16.8856V46.6856L40 38.1141V8.31421L10 16.8856ZM35 22.5C35 23.8807 33.8807 25 32.5 25C31.1193 25 30 23.8807 30 22.5C30 21.1193 31.1193 20 32.5 20C33.8807 20 35 21.1193 35 22.5Z" fill="#489825"/>
</g>
</svg>
